<svg viewBox="0 0 128 128" width="48" height="48">
    {/* Snake */}
    <path
      fill="#FFD43B"
      d="M64 20.235c12.426 0 22.518 8.303 22.518 18.53v7.384c0 5.195-2.675 10.314-7.49 14.362-4.73 4.083-10.715 6.497-17.028 6.497-12.425 0-22.519-8.303-22.519-18.53V38.765c0-5.195 2.675-10.314 7.49-14.362C52.656 20.53 58.338 18 64 18h.038c-3.594 0-7.073.822-10.275 2.39 4.382-2.45 9.147-3.843 13.99-3.843z"
    />
    {/* Shading */}
    <path
      fill=" #306998"
      d="M85.853 26.343c.492 0 .889.397.889.887v43.949c0 6.85-3.589 13.58-9.655 18.733-6.101 5.181-13.778 8.256-21.99 8.256-3.273 0-6.478-.547-9.482-1.614 5.778-1.762 10.941-4.573 15.444-8.248 5.305-4.548 8.327-10.417 8.327-16.506V43.474c0-.492.397-.888.888-.888s.89.396.89.888v40.926c0 7.902-4.178 15.717-11.132 21.74-6.983 6.032-15.855 9.627-25.375 9.627-4.717 0-9.304-.808-13.627-2.396 7.978-2.429 15.093-6.281 21.151-11.366 7.171-5.802 11.305-13.474 11.305-21.601V43.474c0-.492.396-.888.888-.888s.889.396.889.888v43.284c0 9.253-4.878 18.376-13.192 25.5-8.344 7.168-19.105 11.461-30.496 11.461-5.68 0-11.242-.955-16.441-2.833 9.065-3.048 17.12-7.834 23.87-14.058 8.065-7.297 12.722-17.023 12.722-27.07V43.474c0-.49.397-.887.889-.887z"
    />
    {/* Eye */}
    <circle fill="#FFFFFF" cx="41.932" cy="45.857" r="3.62" />
  </svg>